<svg width="12" height="11" viewBox="0 0 12 11" fill="none" xmlns="http://www.w3.org/2000/svg">
<path id="Star 1" d="M5.35192 1.11269C5.64122 0.615991 6.35878 0.615991 6.64808 1.11269L7.77335 3.04466C7.87933 3.22661 8.05691 3.35563 8.2627 3.40019L10.4478 3.87337C11.0096 3.99503 11.2314 4.67747 10.8484 5.1061L9.3587 6.77331C9.2184 6.93032 9.15057 7.13908 9.17178 7.34857L9.397 9.57298C9.4549 10.1449 8.87438 10.5666 8.34838 10.3349L6.30244 9.43327C6.10975 9.34836 5.89025 9.34836 5.69756 9.43327L3.65162 10.3349C3.12562 10.5666 2.5451 10.1449 2.603 9.57298L2.82822 7.34857C2.84943 7.13908 2.7816 6.93032 2.6413 6.77331L1.15162 5.1061C0.768633 4.67747 0.990373 3.99503 1.55216 3.87337L3.7373 3.40019C3.94309 3.35563 4.12067 3.22661 4.22665 3.04466L5.35192 1.11269Z" fill="#F8A80D"/>
</svg>
